HIERARCHY
ROOT Hips
{
	OFFSET 0.000000 0.000000 0.000000
	CHANNELS 6 Xposition Yposition Zposition Zrotation Yrotation Xrotation 
	JOINT LHipJoint
	{
		OFFSET 0.000000 0.000000 0.000000
		CHANNELS 3 Zrotation Yrotation Xrotation
		JOINT LeftUpLeg
		{
			OFFSET 1.363060 -1.794630 0.839290
			CHANNELS 3 Zrotation Yrotation Xrotation
			JOINT LeftLeg
			{
				OFFSET 2.448110 -6.726130 0.000000
				CHANNELS 3 Zrotation Yrotation Xrotation
				JOINT LeftFoot
				{
					OFFSET 2.562200 -7.039590 0.000000
					CHANNELS 3 Zrotation Yrotation Xrotation
					JOINT LeftToeBase
					{
						OFFSET 0.157640 -0.433110 2.322550
						CHANNELS 3 Zrotation Yrotation Xrotation
						End Site
						{
							OFFSET 0.000000 0.000000 0.000000
						}
					}
				}
			}
		}
	}
	JOINT RHipJoint
	{
		OFFSET 0.000000 0.000000 0.000000
		CHANNELS 3 Zrotation Yrotation Xrotation
		JOINT RightUpLeg
		{
			OFFSET -1.305520 -1.794630 0.839290
			CHANNELS 3 Zrotation Yrotation Xrotation
			JOINT RightLeg
			{
				OFFSET -2.542530 -6.985550 0.000000
				CHANNELS 3 Zrotation Yrotation Xrotation
				JOINT RightFoot
				{
					OFFSET -2.568260 -7.056230 0.000000
					CHANNELS 3 Zrotation Yrotation Xrotation
					JOINT RightToeBase
					{
						OFFSET -0.164730 -0.452590 2.363150
						CHANNELS 3 Zrotation Yrotation Xrotation
						End Site
						{
							OFFSET 0.000000 0.000000 0.000000
						}
					}
				}
			}
		}
	}
	JOINT LowerBack
	{
		OFFSET 0.000000 0.000000 0.000000
		CHANNELS 3 Zrotation Yrotation Xrotation
		JOINT Spine
		{
			OFFSET 0.028270 2.035590 -0.193380
			CHANNELS 3 Zrotation Yrotation Xrotation
			JOINT Spine1
			{
				OFFSET 0.056720 2.048850 -0.042750
				CHANNELS 3 Zrotation Yrotation Xrotation
				JOINT Neck
				{
					OFFSET 0.000000 0.000000 0.000000
					CHANNELS 3 Zrotation Yrotation Xrotation
					JOINT Neck1
					{
						OFFSET -0.054170 1.746240 0.172020
						CHANNELS 3 Zrotation Yrotation Xrotation
						JOINT Head
						{
							OFFSET 0.104070 1.761360 -0.123970
							CHANNELS 3 Zrotation Yrotation Xrotation
							End Site
							{
								OFFSET 0.000000 0.000000 0.000000
							}
						}
					}
				}
				JOINT LeftShoulder
				{
					OFFSET 0.000000 0.000000 0.000000
					CHANNELS 3 Zrotation Yrotation Xrotation
					JOINT LeftArm
					{
						OFFSET 3.362410 1.200890 -0.311210
						CHANNELS 3 Zrotation Yrotation Xrotation
						JOINT LeftForeArm
						{
							OFFSET 4.983000 -0.000000 -0.000000
							CHANNELS 3 Zrotation Yrotation Xrotation
							JOINT LeftHand
							{
								OFFSET 3.483560 -0.000000 -0.000000
								CHANNELS 3 Zrotation Yrotation Xrotation
								JOINT LeftFingerBase
								{
									OFFSET 0.000000 0.000000 0.000000
									CHANNELS 3 Zrotation Yrotation Xrotation
									JOINT LeftHandIndex1
									{
										OFFSET 0.715260 -0.000000 -0.000000
										CHANNELS 3 Zrotation Yrotation Xrotation
										End Site
										{
											OFFSET 0.000000 0.000000 0.000000
										}
									}
								}
								JOINT LThumb
								{
									OFFSET 0.000000 0.000000 0.000000
									CHANNELS 3 Zrotation Yrotation Xrotation
									End Site
									{
										OFFSET 0.000000 0.000000 0.000000
									}
								}
							}
						}
					}
				}
				JOINT RightShoulder
				{
					OFFSET 0.000000 0.000000 0.000000
					CHANNELS 3 Zrotation Yrotation Xrotation
					JOINT RightArm
					{
						OFFSET -3.136600 1.374050 -0.404650
						CHANNELS 3 Zrotation Yrotation Xrotation
						JOINT RightForeArm
						{
							OFFSET -5.241900 -0.000000 -0.000000
							CHANNELS 3 Zrotation Yrotation Xrotation
							JOINT RightHand
							{
								OFFSET -3.444170 -0.000000 -0.000000
								CHANNELS 3 Zrotation Yrotation Xrotation
								JOINT RightFingerBase
								{
									OFFSET 0.000000 0.000000 0.000000
									CHANNELS 3 Zrotation Yrotation Xrotation
									JOINT RightHandIndex1
									{
										OFFSET -0.622530 -0.000000 -0.000000
										CHANNELS 3 Zrotation Yrotation Xrotation
										End Site
										{
											OFFSET 0.000000 0.000000 0.000000
										}
									}
								}
								JOINT RThumb
								{
									OFFSET 0.000000 0.000000 0.000000
									CHANNELS 3 Zrotation Yrotation Xrotation
									End Site
									{
										OFFSET 0.000000 0.000000 0.000000
									}
								}
							}
						}
					}
				}
			}
		}
	}
}
MOTION
Frames: 6
Frame Time: 0.008333
3.086624 17.837490 0.688836 139.212718 86.641000 161.696846 -9.154799 1.542609 2.555079 -16.982406 2.402773 -36.514080 -3.735038 -0.857630 5.641540 0.194001 2.560894 6.424341 1.193000 0.000000 -46.914300 11.037423 -3.137959 0.075138 6.379059 -1.299142 -8.560064 -1.073992 -2.514612 44.677487 -2.157916 -11.475126 14.897610 -4.197000 -0.000000 -62.218600 -1.109000 0.266199 -2.634311 0.015106 0.397894 -4.058161 -0.796640 0.367868 -3.350268 2.447486 0.558656 -8.524987 1.064735 0.106530 -0.310263 0.000000 0.000000 0.000000 15.438130 6.656525 4.114822 35.994745 -63.319348 -77.995647 0.924493 -39.393435 0.044946 -4.054649 5.577897 -0.189358 0.154736 0.418085 0.000000 0.000000 0.000000 0.000000 0.000000 0.000000 0.000000 -13.442771 8.425734 -2.105395 18.718926 58.078357 -46.334231 -4.145353 31.805467 -0.136586 -12.419668 7.086238 -0.858919 0.124887 -0.708212 -0.000000 0.000000 0.000000 0.000000 0.000000 0.000000 0.000000 
3.367466 17.778078 0.686108 140.780266 87.223241 162.964044 -9.192026 1.427325 2.460398 -17.086838 2.969851 -36.930667 -3.896477 -0.940658 4.305614 -0.092548 0.723552 7.327448 0.753900 0.000000 -47.449001 11.063472 -3.161614 -0.091360 6.364781 -1.347456 -8.553849 -1.184069 -2.696219 47.879140 -2.264530 -12.159538 13.717931 -4.218500 0.000000 -62.189999 -0.848193 0.323888 -2.348717 0.053730 0.438673 -4.070230 -0.850053 0.419595 -3.650246 2.478373 0.714772 -8.349326 1.018279 0.099171 -0.259362 0.000000 0.000000 0.000000 15.177163 6.558197 4.076645 35.379429 -63.036638 -80.501367 1.041815 -39.677423 0.037791 -3.190988 5.276998 -0.140161 0.137954 0.447862 0.000000 0.000000 0.000000 0.000000 0.000000 0.000000 0.000000 -13.363056 8.590546 -2.440045 19.537222 58.443573 -47.629519 -4.411634 32.687246 -0.164644 -14.668152 7.836694 -1.120868 0.171394 -0.746198 -0.000000 0.000000 0.000000 0.000000 0.000000 0.000000 0.000000 
3.648669 17.705602 0.686602 140.978534 87.723459 162.864910 -9.190021 1.329050 2.418078 -17.097814 3.089914 -37.333550 -3.985109 -0.973034 3.640311 -0.286635 -0.604906 7.921034 0.407600 -0.000000 -47.416400 11.136723 -3.181405 -0.271653 6.158070 -1.480644 -8.578314 -1.302158 -2.887125 51.053873 -2.353062 -12.703748 12.644719 -4.179200 0.000000 -62.016100 -0.715830 0.346832 -2.095317 0.066307 0.453910 -4.085509 -0.907048 0.444309 -3.935881 2.540169 0.836327 -8.151895 0.971164 0.091334 -0.201331 0.000000 0.000000 0.000000 14.928068 6.459773 4.023383 34.916824 -62.772932 -83.194319 1.168181 -39.908667 0.027255 -2.098184 4.907053 -0.085500 0.114002 0.479783 -0.000000 0.000000 0.000000 0.000000 0.000000 0.000000 0.000000 -13.220338 8.685363 -2.766550 20.304324 58.917952 -48.720308 -4.653118 33.483641 -0.192185 -16.863722 8.509647 -1.399213 0.217951 -0.779603 -0.000000 0.000000 0.000000 0.000000 0.000000 0.000000 0.000000 
3.929973 17.620818 0.691300 138.880275 88.093341 160.501898 -9.137909 1.243354 2.457464 -16.957116 2.616386 -37.692425 -3.990342 -0.967092 3.618591 -0.372676 -1.203603 8.119015 0.247600 0.000000 -46.828100 11.265065 -3.202777 -0.468086 5.736725 -1.709472 -8.672251 -1.424820 -3.093563 54.191522 -2.425514 -13.124304 11.665093 -4.093000 -0.000000 -61.663200 -0.735206 0.323838 -1.898818 0.048967 0.433387 -4.106917 -0.965534 0.431379 -4.198304 2.633107 0.924026 -7.942587 0.925687 0.083420 -0.139185 0.000000 0.000000 0.000000 14.701867 6.365081 3.957415 34.654394 -62.534754 -86.106095 1.303700 -40.085613 0.013068 -0.783667 4.427645 -0.029775 0.082894 0.514702 -0.000000 0.000000 0.000000 0.000000 0.000000 0.000000 0.000000 -13.021463 8.707826 -3.075520 20.997429 59.473496 -49.607904 -4.866070 34.179866 -0.218389 -18.974668 9.095257 -1.683551 0.263631 -0.807930 -0.000000 0.000000 0.000000 0.000000 0.000000 0.000000 0.000000 
4.210797 17.524424 0.700471 133.905964 88.288975 155.309350 -9.038461 1.165739 2.574706 -16.693139 1.577646 -38.075585 -3.919531 -0.918972 4.338188 -0.356001 -1.078999 7.806675 0.288500 -0.000000 -45.676300 11.441318 -3.236025 -0.674257 5.102653 -2.031906 -8.865170 -1.549937 -3.321127 57.291203 -2.484906 -13.449202 10.757481 -3.974500 0.000000 -61.153900 -0.916735 0.249215 -1.767004 0.001885 0.371808 -4.134250 -1.020732 0.374926 -4.429729 2.747604 0.978142 -7.733217 0.885296 0.075947 -0.076573 0.000000 0.000000 0.000000 14.505380 6.273808 3.882207 34.617827 -62.321983 -89.238640 1.447538 -40.216147 -0.004651 0.717545 3.808103 0.018720 0.045508 0.553119 -0.000000 0.000000 0.000000 0.000000 0.000000 0.000000 0.000000 -12.789653 8.659447 -3.358291 21.577601 60.073480 -50.305301 -5.046966 34.762053 -0.242541 -20.974523 9.580558 -1.962189 0.307786 -0.830759 -0.000000 0.000000 0.000000 0.000000 0.000000 0.000000 0.000000 
4.490493 17.417034 0.713871 126.192307 88.282436 147.428727 -8.908211 1.095035 2.751293 -16.388456 0.092630 -38.593972 -3.784043 -0.816167 5.927509 -0.244740 -0.365498 6.891057 0.479000 -0.000000 -43.990200 11.643760 -3.282697 -0.882496 4.258378 -2.437829 -9.177619 -1.680393 -3.569807 60.365000 -2.532902 -13.699609 9.888591 -3.831400 0.000000 -60.481100 -1.276275 0.127899 -1.697254 -0.074482 0.275319 -4.165559 -1.064807 0.279971 -4.623738 2.866973 0.999499 -7.535812 0.854322 0.069506 -0.017239 0.000000 0.000000 0.000000 14.344697 6.183193 3.802023 34.803053 -62.126854 -92.552817 1.597141 -40.316215 -0.025466 2.355117 3.037335 0.049492 0.003155 0.594939 -0.000000 0.000000 0.000000 0.000000 0.000000 0.000000 0.000000 -12.559875 8.548528 -3.607112 21.992021 60.674990 -50.837126 -5.192472 35.218348 -0.264027 -22.837508 9.951324 -2.222228 0.349899 -0.847769 -0.000000 0.000000 0.000000 0.000000 0.000000 0.000000 0.000000 
